<?xml version="1.0"?>
<svg xmlns="http://www.w3.org/2000/svg" xmlns:xlink="http://www.w3.org/1999/xlink" xmlns:svgjs="http://svgjs.com/svgjs" version="1.1" width="512" height="512" x="0" y="0" viewBox="0 0 24 24" style="enable-background:new 0 0 512 512" xml:space="preserve"><g><path xmlns="http://www.w3.org/2000/svg" d="M23,17a1,1,0,0,0-1,1v2.586l-2.994-2.994C21.2,15.25,23,12.547,23,9.987a5.745,5.745,0,0,0-5.5-5.949A5.39,5.39,0,0,0,13,6.57,5.39,5.39,0,0,0,8.5,4.038a5.13,5.13,0,0,0-2.428.619L1.707.293A1,1,0,0,0,.293,1.707L4.5,5.915A6.188,6.188,0,0,0,3,9.987c0,3.791,3.951,7.9,7.265,10.676a4.248,4.248,0,0,0,5.47,0c.608-.51,1.238-1.065,1.861-1.654L20.586,22H18a1,1,0,0,0,0,2h4a2,2,0,0,0,2-2V18A1,1,0,0,0,23,17Z" fill="#f43f5e" data-original="#000000"/></g></svg>
