<svg id="Calque_1" data-name="Calque 1" xmlns="http://www.w3.org/2000/svg" xmlns:xlink="http://www.w3.org/1999/xlink" viewBox="0 0 1000 1000"><defs><style>.cls-1{fill:url(#Dégradé_sans_nom_8);}.cls-2{fill:url(#Dégradé_sans_nom_19);}.cls-3{fill:url(#Dégradé_sans_nom_4);}.cls-4{fill:url(#Dégradé_sans_nom_5);}.cls-5{fill:url(#Dégradé_sans_nom_5-2);}.cls-6{fill:url(#Dégradé_sans_nom_9);}.cls-7{fill:url(#Dégradé_sans_nom_19-2);}</style><linearGradient id="Dégradé_sans_nom_8" x1="437" y1="435.49" x2="571.15" y2="566.61" gradientUnits="userSpaceOnUse"><stop offset="0.14" stop-color="#01ac71"/><stop offset="0.88" stop-color="#004200"/></linearGradient><linearGradient id="Dégradé_sans_nom_19" x1="299.39" y1="374.89" x2="516.91" y2="612.86" gradientUnits="userSpaceOnUse"><stop offset="0.04" stop-color="#063f1d"/><stop offset="0.86" stop-color="#01ac71"/></linearGradient><linearGradient id="Dégradé_sans_nom_4" x1="422.54" y1="351.82" x2="517.51" y2="253.51" gradientUnits="userSpaceOnUse"><stop offset="0.14" stop-color="#01ac71"/><stop offset="0.88"/></linearGradient><linearGradient id="Dégradé_sans_nom_5" x1="462.28" y1="207.19" x2="552.16" y2="300.03" gradientUnits="userSpaceOnUse"><stop offset="0.14" stop-color="#01ac71"/><stop offset="0.96" stop-color="#063f1d"/></linearGradient><linearGradient id="Dégradé_sans_nom_5-2" x1="292.85" y1="464.66" x2="315.7" y2="330.24" xlink:href="#Dégradé_sans_nom_5"/><linearGradient id="Dégradé_sans_nom_9" x1="499.36" y1="604.71" x2="665.83" y2="432.64" xlink:href="#Dégradé_sans_nom_19"/><linearGradient id="Dégradé_sans_nom_19-2" x1="256.48" y1="414.11" x2="474" y2="652.08" xlink:href="#Dégradé_sans_nom_19"/></defs><path class="cls-1" d="M334.22,434.73q23.83,23.06,47.6,46.17c2.67,2.61,4.81,5.79,7.72,8.17,10.07,8.26,18.93,17.78,28.28,26.78q28.82,27.76,57.37,55.79c3.7,3.63,7.6,6.54,12.82,7.34,6.19-.28,10.47-3.74,14.62-8q67.11-69.37,134.44-138.56c4.45-4.58,6.43-9.72,4.6-16-.93-3.21-3-5.61-5.36-7.88-10.58-10.19-21.1-20.44-31.68-30.63-4.62-4.45-6.49-9.67-4.87-16a15,15,0,0,1,4-6.8c8.39-8.62,16.71-17.32,25.19-25.85,6.33-6.38,15.23-6.41,21.78-.2,6.8,6.45,13.49,13,20.22,19.55l59.84,58c2.34,2.26,4.58,4.57,5.57,7.75,2,6.36.39,11.82-4.21,16.53q-11,11.25-22,22.57L640.6,525.13l-49.57,51q-32.56,33.52-65.17,67a8,8,0,0,0-2.52,6.26c.43,23.36.72,46.72,1.06,70.08.22,15.1.53,30.21.67,45.31.07,7.89-4.9,13.71-12.44,15-1.81,1.1-3.83.6-5.74.64-4.32.1-8.65,0-13-.06a7.18,7.18,0,0,1-3.26,0c-6.15.11-12.3.4-18.45.27a14.59,14.59,0,0,1-13.58-11.18,25.74,25.74,0,0,1-.66-6.25q-.61-48-1.24-96.1c-.07-5.73-.35-11.47-.36-17.2a7,7,0,0,0-2.36-5.46q-53.06-51.4-106-102.93-53.13-51.63-106.24-103.27c-7.6-7.39-7.72-16-.35-23.58q38.13-39.35,76.28-78.64c.68-.7,1.37-1.39,2.08-2.08,6.65-6.5,15.39-6.7,22.11-.29,8.61,8.2,17,16.62,25.63,24.81a15.71,15.71,0,0,1,.42,22.21c-10.72,10.85-20.73,23.15-31.85,33.56C336.08,414.26,325.52,426.33,334.22,434.73Z"/><path class="cls-2" d="M502.63,571c-4.15,4.28-8.43,7.74-14.62,8-5.22-.8-9.12-3.71-12.82-7.34q-28.56-28-57.37-55.79c-9.35-9-18.21-18.52-28.28-26.78-2.91-2.38-5.05-5.56-7.72-8.17q-23.71-23.17-47.6-46.17c-8.7-8.4,1.86-20.47,1.86-20.47,11.12-10.41,21.13-22.71,31.85-33.56a15.71,15.71,0,0,0-.42-22.21c-8.62-8.19-17-16.61-25.63-24.81-6.72-6.41-15.46-6.21-22.11.29-.71.69-1.4,1.38-2.08,2.08q-38.15,39.32-76.28,78.64c-7.37,7.6-7.25,16.19.35,23.58Q294.86,489.92,348,541.54,401,593,454,644.47a7,7,0,0,1,2.36,5.46c0,5.73.29,11.47.36,17.2q.64,48,1.24,96.1a25.74,25.74,0,0,0,.66,6.25,14.59,14.59,0,0,0,13.58,11.18c6.15.13,12.3-.16,18.45-.27a7.18,7.18,0,0,0,3.26,0c4.33,0,8.66.16,13,.06,1.91,0,3.93.46,5.74-.64,7.54-1.25,12.51-7.07,12.44-15-.14-15.1-.45-30.21-.67-45.31-.34-23.36-.63-46.72-1.06-70.08a8,8,0,0,1,2.52-6.26q32.64-33.43,65.17-67l49.57-51Z"/><path class="cls-3" d="M407.05,319.55c6.92,6.86,15.74,6.84,22.7.06,3.67-3.56,7.12-7.33,10.79-10.9q17.68-17.2,34.91-34.9c4.51-4.65,9.46-7.25,16-6.57a20.27,20.27,0,0,1,9.47,5.89l10.23,10.27q18.12,18.19,36.32,36.3c6.44,6.42,15.45,6.74,21.76.61q13.39-13,26.39-26.4c5.76-5.94,5.6-14.71,0-20.88-.65-.73-1.37-1.4-2.06-2.09q-33.68-33.66-67.34-67.32c-2.23-2.23-4.63-4.24-6.8-6.58-6.54-7.08-13.49-13.79-20.4-20.52a13.21,13.21,0,0,0-11.88-3.89c-4.12-.22-7.19,1.87-9.92,4.61q-47.48,47.47-94.92,95c-6.85,6.87-6.76,15.75.12,22.69Q394.69,307.3,407.05,319.55Z"/><path class="cls-4" d="M595.59,293.91c5.76-5.94,5.6-14.71,0-20.88-.65-.73-1.37-1.4-2.06-2.09q-33.68-33.66-67.34-67.32c-2.23-2.23-4.63-4.24-6.8-6.58-6.54-7.08-13.49-13.79-20.4-20.52a13.21,13.21,0,0,0-11.88-3.89c-4.12-.22-7.19,1.87-9.92,4.61q-28.86,28.84-57.7,57.71c49.86-1.32,95.84,52.23,98.4,55.26Q532.66,305,547.44,319.7c6.44,6.42,15.45,6.74,21.76.61Q582.6,307.32,595.59,293.91Z"/><path class="cls-5" d="M335.17,415.6c-8.95,13.38-28.77,49.86-19.48,94.54-19.4-18.85-54.54-53-73.93-71.87-7.6-7.39-7.72-16-.35-23.58q38.13-39.35,76.28-78.64c.68-.7,1.37-1.39,2.08-2.08,6.65-6.5,15.39-6.7,22.11-.29,8.61,8.2,17,16.62,25.63,24.81a15.71,15.71,0,0,1,.42,22.21Z"/><path class="cls-6" d="M736.33,414.39c-1-3.18-3.23-5.49-5.57-7.75l-8.1-7.86h0L672.8,350.42l-.37-.35c1.43,50.56-38.26,85.39-38.71,85.78Q568.13,503.35,502.63,571c-4.15,4.28-8.43,7.74-14.62,8-5.22-.8-9.12-3.71-12.82-7.34-4.25-4.18-8.53-8.33-12.8-12.5C441,574.41,421.62,588.34,407,598.89q23.48,22.8,47,45.58a7,7,0,0,1,2.36,5.46c0,.54,0,1.08,0,1.62l67.46,29.12q-.23-15.63-.5-31.26a8,8,0,0,1,2.52-6.26q32.64-33.43,65.17-67l49.57-51,69.57-71.64q11-11.3,22-22.57C736.72,426.21,738.33,420.75,736.33,414.39Z"/><path class="cls-7" d="M480.57,576.06a34.13,34.13,0,0,1-5.38-4.42q-5.46-5.35-10.95-10.7L437.9,535.29q-10-9.74-20.08-19.44c-3.45-3.31-6.83-6.7-10.22-10.07l-38.29,56.47q42.32,41.13,84.69,82.22a7,7,0,0,1,2.36,5.46c0,5.73.29,11.47.36,17.2q.64,48,1.24,96.1a25.74,25.74,0,0,0,.66,6.25,14.59,14.59,0,0,0,13.58,11.18c6.15.13,12.3-.16,18.45-.27a7.18,7.18,0,0,0,3.26,0c4.33,0,8.66.16,13,.06,1.91,0,3.93.46,5.74-.64,7.54-1.25,12.51-7.07,12.44-15-.14-15.1-.45-30.21-.67-45.31-.34-23.36-.63-46.72-1.06-70.08a8,8,0,0,1,2.52-6.26q16.82-17.22,33.58-34.48S522.22,610.64,480.57,576.06Z"/></svg>