<svg id="visual" viewBox="0 0 1980 1080" width="1980" height="1080" xmlns="http://www.w3.org/2000/svg" xmlns:xlink="http://www.w3.org/1999/xlink" version="1.1"><rect x="0" y="0" width="1980" height="1080" fill="#171E25"></rect><defs><linearGradient id="grad1_0" x1="45.5%" y1="0%" x2="100%" y2="100%"><stop offset="13.333333333333334%" stop-color="#10b981" stop-opacity="1"></stop><stop offset="86.66666666666667%" stop-color="#10b981" stop-opacity="1"></stop></linearGradient></defs><defs><linearGradient id="grad1_1" x1="45.5%" y1="0%" x2="100%" y2="100%"><stop offset="13.333333333333334%" stop-color="#10b981" stop-opacity="1"></stop><stop offset="86.66666666666667%" stop-color="#171e25" stop-opacity="1"></stop></linearGradient></defs><defs><linearGradient id="grad2_0" x1="0%" y1="0%" x2="54.5%" y2="100%"><stop offset="13.333333333333334%" stop-color="#10b981" stop-opacity="1"></stop><stop offset="86.66666666666667%" stop-color="#10b981" stop-opacity="1"></stop></linearGradient></defs><defs><linearGradient id="grad2_1" x1="0%" y1="0%" x2="54.5%" y2="100%"><stop offset="13.333333333333334%" stop-color="#171e25" stop-opacity="1"></stop><stop offset="86.66666666666667%" stop-color="#10b981" stop-opacity="1"></stop></linearGradient></defs><g transform="translate(1980, 0)"><path d="M0 498C-46.6 478.2 -93.3 458.4 -144.6 445.1C-196 431.8 -252 425 -286.8 394.8C-321.7 364.6 -335.3 311.1 -374.6 272.1C-413.9 233.2 -478.9 208.9 -510.7 165.9C-542.6 123 -541.3 61.5 -540 0L0 0Z" fill="#006874"></path><path d="M0 249C-23.3 239.1 -46.6 229.2 -72.3 222.5C-98 215.9 -126 212.5 -143.4 197.4C-160.8 182.3 -167.6 155.5 -187.3 136.1C-206.9 116.6 -239.4 104.4 -255.4 83C-271.3 61.5 -270.6 30.8 -270 0L0 0Z" fill="#10b981"></path></g><g transform="translate(0, 1080)"><path d="M0 -490C55.3 -504.2 110.6 -518.3 166.3 -511.7C221.9 -505 278 -477.5 317.4 -436.9C356.8 -396.2 379.4 -342.3 404.5 -293.9C429.6 -245.5 457.2 -202.6 475.5 -154.5C493.9 -106.4 502.9 -53.2 512 0L0 0Z" fill="#006874"></path><path d="M0 -245C27.6 -252.1 55.3 -259.2 83.1 -255.8C111 -252.5 139 -238.8 158.7 -218.4C178.4 -198.1 189.7 -171.1 202.3 -146.9C214.8 -122.7 228.6 -101.3 237.8 -77.3C246.9 -53.2 251.5 -26.6 256 0L0 0Z" fill="#10b981"></path></g></svg>