<svg id="visual" viewBox="0 0 1980 1080" width="1980" height="1080" xmlns="http://www.w3.org/2000/svg" xmlns:xlink="http://www.w3.org/1999/xlink" version="1.1"><rect x="0" y="0" width="1980" height="1080" fill="#171E25"></rect><defs><linearGradient id="grad1_0" x1="45.5%" y1="0%" x2="100%" y2="100%"><stop offset="13.333333333333334%" stop-color="#10b981" stop-opacity="1"></stop><stop offset="86.66666666666667%" stop-color="#10b981" stop-opacity="1"></stop></linearGradient></defs><defs><linearGradient id="grad1_1" x1="45.5%" y1="0%" x2="100%" y2="100%"><stop offset="13.333333333333334%" stop-color="#10b981" stop-opacity="1"></stop><stop offset="86.66666666666667%" stop-color="#171e25" stop-opacity="1"></stop></linearGradient></defs><defs><linearGradient id="grad2_0" x1="0%" y1="0%" x2="54.5%" y2="100%"><stop offset="13.333333333333334%" stop-color="#10b981" stop-opacity="1"></stop><stop offset="86.66666666666667%" stop-color="#10b981" stop-opacity="1"></stop></linearGradient></defs><defs><linearGradient id="grad2_1" x1="0%" y1="0%" x2="54.5%" y2="100%"><stop offset="13.333333333333334%" stop-color="#171e25" stop-opacity="1"></stop><stop offset="86.66666666666667%" stop-color="#10b981" stop-opacity="1"></stop></linearGradient></defs><g transform="translate(1980, 0)"><path d="M0 270C-29.1 266 -58.3 262 -81 249.2C-103.6 236.3 -119.8 214.7 -145.8 200.6C-171.7 186.6 -207.3 180.2 -218.4 158.7C-229.5 137.2 -216.1 100.7 -220.6 71.7C-225.2 42.7 -247.6 21.4 -270 0L0 0Z" fill="#006874"></path><path d="M0 135C-14.6 133 -29.1 131 -40.5 124.6C-51.8 118.2 -59.9 107.3 -72.9 100.3C-85.8 93.3 -103.7 90.1 -109.2 79.4C-114.8 68.6 -108.1 50.3 -110.3 35.8C-112.6 21.4 -123.8 10.7 -135 0L0 0Z" fill="#10b981"></path></g><g transform="translate(0, 1080)"><path d="M0 -270C30.7 -270.9 61.4 -271.9 83.4 -256.8C105.4 -241.7 118.7 -210.7 139.9 -192.5C161.1 -174.4 190.2 -169.3 210.3 -152.8C230.5 -136.4 241.7 -108.6 250.1 -81.3C258.6 -53.9 264.3 -27 270 0L0 0Z" fill="#006874"></path><path d="M0 -135C15.4 -135.5 30.7 -135.9 41.7 -128.4C52.7 -120.9 59.4 -105.3 69.9 -96.3C80.5 -87.2 95.1 -84.6 105.2 -76.4C115.2 -68.2 120.8 -54.3 125.1 -40.6C129.3 -27 132.1 -13.5 135 0L0 0Z" fill="#10b981"></path></g></svg>