<svg id="visual" viewBox="0 0 1920 1080" width="1920" height="1080" xmlns="http://www.w3.org/2000/svg" xmlns:xlink="http://www.w3.org/1999/xlink" version="1.1"><rect x="0" y="0" width="1920" height="1080" fill="#171E25"></rect><path d="M0 913L274 916L549 753L823 854L1097 903L1371 830L1646 701L1920 840L1920 1081L1646 1081L1371 1081L1097 1081L823 1081L549 1081L274 1081L0 1081Z" fill="#10b981"></path><path d="M0 801L274 766L549 886L823 764L1097 905L1371 773L1646 862L1920 946L1920 1081L1646 1081L1371 1081L1097 1081L823 1081L549 1081L274 1081L0 1081Z" fill="#6acb9f"></path><path d="M0 863L274 886L549 857L823 850L1097 863L1371 855L1646 936L1920 900L1920 1081L1646 1081L1371 1081L1097 1081L823 1081L549 1081L274 1081L0 1081Z" fill="#9fddbe"></path><path d="M0 981L274 932L549 912L823 933L1097 951L1371 957L1646 940L1920 880L1920 1081L1646 1081L1371 1081L1097 1081L823 1081L549 1081L274 1081L0 1081Z" fill="#d0eede"></path><path d="M0 992L274 959L549 1034L823 1015L1097 998L1371 995L1646 948L1920 1023L1920 1081L1646 1081L1371 1081L1097 1081L823 1081L549 1081L274 1081L0 1081Z" fill="#ffffff"></path></svg>